<svg xmlns="http://www.w3.org/2000/svg" width="168" height="50" viewBox="0 0 168 50"><path fill-rule="evenodd" clip-rule="evenodd" fill="#003768" d="M43.822 27.67H41.652c-.524-.008-1.141-.6-.725-1.324l2.841-4.763c.122-.328-.003-.781-.512-.828h-3.151a.34.34 0 0 1-.339-.339v-.679a.34.34 0 0 1 .339-.339h14.532a.34.34 0 0 1 .339.339v.679a.34.34 0 0 1-.339.339h-6.424a.607.607 0 0 0-.416.255l-2.644 4.429c-.212.553.076 1.114.658 1.21h3.695c.564-.093.851-.622.679-1.155-.417-.658-1.107-1.674-1.523-2.333-.152-.225.031-.379.183-.357h3.106c.08 0 .189.033.266.147l2.239 3.395c.416.725-.2 1.316-.725 1.324H43.822zm-3.726-11.994h14.552a.33.33 0 0 1 .33.329v.659a.33.33 0 0 1-.33.33H40.096a.33.33 0 0 1-.329-.33v-.659a.33.33 0 0 1 .329-.329M59.204 27.582h-1.957c-.128-.006-.257-.11-.216-.297l2.113-6.268c.049-.191-.104-.264-.187-.262h-2.068a.256.256 0 0 1-.255-.255v-.697c0-.141.115-.255.255-.255h2.085a.472.472 0 0 0 .49-.402v-1.908a.47.47 0 0 0-.404-.397h-2.172a.256.256 0 0 1-.255-.255v-1.218c0-.244.199-.443.443-.443h2.108c.244 0 .443.199.443.443v.104a.205.205 0 0 0 .207.204h5.213c.14 0 .256.115.256.255v.654c0 .14-.116.255-.256.255H62.88a.47.47 0 0 0-.406.414v1.875a.473.473 0 0 0 .508.419h2.066c.14 0 .256.116.256.255v.697c0 .14-.116.255-.256.255h-2.07a.195.195 0 0 0-.183.267l2.111 6.263c.036.15-.047.287-.218.297h-1.95c-.23-.014-.287-.162-.313-.226-.431-1.354-.863-3.329-1.294-4.609-.102-.344-.235-.343-.333.014l-1.296 4.587a.316.316 0 0 1-.298.234m7.936-11.906h5.093c.601 0 1.091.491 1.091 1.091v9.73c0 .601-.491 1.092-1.091 1.092H67.14a1.095 1.095 0 0 1-1.092-1.092v-9.73c0-.6.492-1.091 1.092-1.091m1.855 1.021h1.324c.156 0 .284.128.284.284v9.302a.285.285 0 0 1-.284.284h-1.324a.285.285 0 0 1-.284-.284v-9.302c0-.156.128-.284.284-.284M65.139 32.138h4.865c.308 0 .56.252.56.561v3.408a.562.562 0 0 1-.56.561h-4.865a.562.562 0 0 1-.56-.561v-3.408c0-.309.253-.561.56-.561m1.989.707h.887c.244 0 .443.2.443.444v2.273c0 .244-.2.443-.443.443h-.887a.444.444 0 0 1-.443-.443v-2.273a.446.446 0 0 1 .443-.444M85.386 32.138h2.9c.278.008.451-.24.454-.448v-1.144c0-.134.108-.242.242-.242h1.471c.133 0 .241.108.241.242v5.56a.556.556 0 0 1-.548.561h-4.761a.556.556 0 0 1-.549-.561v-3.408a.558.558 0 0 1 .55-.56m2.001.707h.887c.243 0 .442.2.442.444v2.273a.444.444 0 0 1-.442.443h-.887a.444.444 0 0 1-.443-.443v-2.273a.444.444 0 0 1 .443-.444M40.233 36.667h6.64c.308 0 .56-.252.56-.561v-5.252a.562.562 0 0 0-.56-.561h-.966a.58.58 0 0 0-.58.561c0 1.326.024 2.651 0 3.978-.009.454-.378.853-.826.879-.631.035-1.265.035-1.896 0a.899.899 0 0 1-.826-.879v-3.97h-.001a.582.582 0 0 0-.581-.568h-.964a.563.563 0 0 0-.561.561v5.252c0 .308.253.56.561.56M55.306 32.138h1.334a.22.22 0 0 1 .219.22v3.144a.312.312 0 0 0 .314.318h4.022c.313 0 .443-.09.443-.332v-.262c-.006-.207-.074-.29-.272-.317H58.49a.824.824 0 0 1-.726-.818v-.025h-.006v-1.348c0-.309.252-.561.561-.561h5.232c.098 0 .177.079.177.177v.494c0 .097-.08.177-.177.177H60.31c-.312 0-.443.091-.443.333v.261c.005.207.073.29.271.317h2.876a.824.824 0 0 1 .726.818v.025h.005v1.348a.562.562 0 0 1-.56.561h-7.878a.22.22 0 0 1-.22-.219v-4.091a.219.219 0 0 1 .219-.22m.171-1.828h.992c.215 0 .39.176.39.391v.521a.39.39 0 0 1-.39.39h-.992a.391.391 0 0 1-.391-.39V30.7a.39.39 0 0 1 .391-.39M83.51 32.138h-4.865a.563.563 0 0 0-.561.561v3.549c0 .309.113.42.42.42h1.246c.314 0 .429-.108.44-.42V33.447c0-.454.097-.599.545-.599h.682c.448 0 .546.145.546.599v2.794h.001c.007.314.124.427.44.427h1.245c.307 0 .42-.112.42-.42v-3.549a.562.562 0 0 0-.559-.561M75.58 25.475l-.954 1.781c-.063.105-.006.329.199.332h2.771c.133 0 .22-.072.273-.16.35-.65.699-1.304 1.049-1.955a.309.309 0 0 1 .289-.18h10.979c.28 0 .51-.229.51-.51v-4.598c0-.28-.229-.51-.51-.51H76.258a.51.51 0 0 0-.51.51v4.167c0 .518.083.656-.168 1.123m9.29-8.6v.484c0 .119.067.275.256.275h5.313c.141 0 .255.115.255.254v.511c0 .14-.114.256-.255.256H76.003a.257.257 0 0 1-.256-.256v-.511c0-.14.115-.254.256-.254H81.3c.146 0 .25-.136.246-.247v-.522a.242.242 0 0 0-.248-.252h-5.294a.256.256 0 0 1-.256-.255v-.511c0-.14.115-.255.256-.255h5.542v-.167c0-.237.193-.431.431-.431h2.465c.237 0 .431.194.431.431v.167h5.567c.141 0 .255.115.255.255v.511c0 .14-.114.255-.255.255h-5.313a.263.263 0 0 0-.257.262m-2.69 4.276c-.504.962-.98 1.877-1.484 2.838-.076.146-.303.279-.471.282h-.956a.46.46 0 0 1-.458-.458v-2.661a.46.46 0 0 1 .458-.458h2.636c.244.013.378.246.275.457m1.943 2.659l1.491-2.843a.462.462 0 0 1 .426-.271h1.134a.46.46 0 0 1 .458.458v2.661a.46.46 0 0 1-.458.458h-2.779c-.186.009-.4-.217-.272-.463M76.757 36.667h-4.865a.563.563 0 0 1-.561-.561v-3.548c0-.308.113-.421.42-.421h1.246c.314 0 .43.109.44.42v2.802c0 .453.097.598.545.598h.682c.449 0 .546-.145.546-.598v-2.794h.001c.007-.314.124-.428.44-.428h1.245c.306 0 .42.113.42.421v3.548a.56.56 0 0 1-.559.561M53.625 32.138H48.76a.563.563 0 0 0-.561.561v3.549c0 .308.113.42.42.42h1.246c.314 0 .429-.109.44-.42v-2.802c0-.453.097-.598.545-.598h.682c.449 0 .546.145.546.598v2.794h.001c.007.314.124.428.441.428h1.244c.307 0 .42-.113.42-.42v-3.549a.56.56 0 0 0-.559-.561M25.582 37.634a13.95 13.95 0 0 1-3.665 1.664.291.291 0 0 1-.304-.089c-.878-1.005-2.168-1.641-3.607-1.641s-2.73.636-3.608 1.641a.29.29 0 0 1-.304.089 13.965 13.965 0 0 1-3.665-1.664.283.283 0 0 1-.13-.188.284.284 0 0 1 .044-.224 9.213 9.213 0 0 1 7.662-4.089 9.215 9.215 0 0 1 7.662 4.089.283.283 0 0 1 .044.224.284.284 0 0 1-.129.188"/><path fill-rule="evenodd" clip-rule="evenodd" fill="#1AA9A4" d="M21.917 12.295c1.311.379 2.542.944 3.665 1.663a.29.29 0 0 1 .13.189.285.285 0 0 1-.044.225 9.216 9.216 0 0 1-7.662 4.088 9.217 9.217 0 0 1-7.662-4.088c-.046-.069-.061-.144-.044-.225s.061-.144.13-.189a14.013 14.013 0 0 1 3.665-1.663.289.289 0 0 1 .304.089c.878 1.005 2.169 1.64 3.608 1.64s2.729-.635 3.607-1.64a.288.288 0 0 1 .303-.089"/><path fill-rule="evenodd" clip-rule="evenodd" fill="#003768" d="M31.909 27.852a13.985 13.985 0 0 1-2.292 5.862.142.142 0 0 1-.149.06.144.144 0 0 1-.111-.116 11.447 11.447 0 0 0-1.224-3.537.286.286 0 0 1 .081-.368 17.21 17.21 0 0 0 2.86-2.68c.062-.072.145-.107.239-.101s.173.054.223.134c.116.184.229.371.338.561a.288.288 0 0 1 .035.185m-9.169-2.748a11.463 11.463 0 0 0-4.735-1.017c-5.695 0-10.426 4.138-11.351 9.569a.142.142 0 0 1-.111.116.14.14 0 0 1-.149-.06 13.977 13.977 0 0 1-2.292-5.862.275.275 0 0 1 .035-.186c2.756-4.803 7.935-8.041 13.869-8.041 2.985 0 5.779.819 8.169 2.245a.279.279 0 0 1 .135.192.277.277 0 0 1-.054.229 10.423 10.423 0 0 1-3.258 2.803.274.274 0 0 1-.258.012"/><path fill-rule="evenodd" clip-rule="evenodd" fill="#1AA9A4" d="M29.616 17.879a13.976 13.976 0 0 1 2.293 5.864.286.286 0 0 1-.035.185c-2.756 4.803-7.935 8.041-13.869 8.041-2.985 0-5.779-.819-8.169-2.245-.073-.044-.12-.111-.136-.194s.002-.161.054-.229a10.451 10.451 0 0 1 3.259-2.803.284.284 0 0 1 .257-.009 11.478 11.478 0 0 0 4.735 1.016c5.695 0 10.426-4.137 11.351-9.569a.143.143 0 0 1 .26-.057m-25.142 6.61a15.2 15.2 0 0 1-.338-.562.272.272 0 0 1-.035-.185 13.97 13.97 0 0 1 2.292-5.863.141.141 0 0 1 .149-.059.14.14 0 0 1 .111.116 11.412 11.412 0 0 0 1.224 3.537.287.287 0 0 1-.081.368 17.218 17.218 0 0 0-2.86 2.681.28.28 0 0 1-.239.101.282.282 0 0 1-.223-.134"/><path fill="none" stroke="#003768" stroke-width=".5" stroke-miterlimit="10" d="M99.512 15.149v21.295"/><path fill="#003768" d="M108.149 22.364h2.794c.042-.223.069-.445.069-.695v-.598h-2.766l.723-1.82.903.333-.236.542h4.879v.945h-2.558v.598c0 .236-.014.472-.056.695h2.794v.945h-2.099l2.168 1.835-.611.708-2.669-2.237c-.569 1.056-1.653 1.848-3.196 2.376l-.307-.89c1.224-.431 2.085-1.028 2.572-1.793h-2.405v-.944zm2.183 9.563a1.487 1.487 0 0 1-1.474-1.487v-2.641c0-.82.667-1.488 1.474-1.488h7.937c.807 0 1.473.668 1.473 1.488v2.641c0 .819-.666 1.487-1.473 1.487h-7.937zm-.528-3.295h8.993v-.833a.53.53 0 0 0-.528-.543h-7.937a.53.53 0 0 0-.528.543v.833zm8.465 2.348a.53.53 0 0 0 .528-.541v-.863h-8.993v.863a.53.53 0 0 0 .528.541h7.937zm-1.502-5.294a1.49 1.49 0 0 1-1.487-1.487v-3.044c0-.82.668-1.501 1.487-1.501h2.294c.82 0 1.501.681 1.501 1.501v3.044a1.5 1.5 0 0 1-1.501 1.487h-2.294zm2.294-.946a.546.546 0 0 0 .556-.542v-3.044a.557.557 0 0 0-.556-.556h-2.294a.545.545 0 0 0-.541.556v3.044c0 .306.236.542.541.542h2.294zM121.882 28.312h7.491a9.48 9.48 0 0 0 1.862-1.208h-8.617v-.945h10.855c-.793.875-1.57 1.598-2.335 2.153h3.252v.946h-4.739l-.11.055v.904c0 .89-.682 1.598-1.502 1.598h-2.335v-.945h2.335c.306 0 .542-.292.542-.653v-.959h-6.699v-.946zm6.852-9.034v.834h5.74v.945h-12.496v-.945h5.797v-.834h.959zm4.99 4.892a.987.987 0 0 1-.986.973h-9.285a.987.987 0 0 1-.986-.973v-1.112a.99.99 0 0 1 .986-.987h9.285a.99.99 0 0 1 .986.987v1.112zm-.946-1.111c0-.028-.014-.042-.041-.042h-9.285c-.027 0-.041.014-.041.042v1.112c0 .014.014.028.041.028h9.285c.027 0 .041-.014.041-.028v-1.112zM142.48 19.195v1.557h4.822v.945h-4.822v2.641h5.462v.945h-3.628l4.045 5.824-.778.527-4.42-6.352h-.681v6.699h-.945v-6.699h-.639c-1.016 2.655-2.489 4.656-4.518 6.324l-.598-.736c1.82-1.474 3.141-3.253 4.086-5.588h-3.794v-.945h5.462v-2.641h-4.822v-.945h4.822v-1.557h.946zM156.436 19.195v1.487h5.28v.945h-5.28v3.559h2.056l1.154-3.1.89.333-1.028 2.767h2.682v.944h-3.767l3.893 5.212-.765.556-4.322-5.768h-.792v5.852h-.946V26.13h-.667c-1.084 2.418-2.557 4.239-4.643 5.768l-.556-.777c1.821-1.334 3.155-2.919 4.156-4.99h-4.018v-.944h2.642l-1.028-2.767.89-.333 1.153 3.1h2.07v-3.559h-5.295v-.945h5.295v-1.487h.946z"/><path fill="none" d="M164.264 41.235H2.433V9.753h161.831"/></svg>